<svg width="36" height="36" viewBox="0 0 110 56" fill="none" xmlns="http://www.w3.org/2000/svg">
<path d="M0.728 48.096C0.728 46.08 1.544 44.472 3.176 43.272C4.856 42.024 6.728 41.4 8.792 41.4C10.904 41.4 12.992 41.808 15.056 42.624C16.304 39.12 17.336 34.608 18.152 29.088C18.968 23.568 19.376 20.16 19.376 18.864C19.376 17.52 18.848 16.272 17.792 15.12V14.112C20.96 12.672 24.872 11.952 29.528 11.952L33.272 12.24C33.56 12.768 33.704 13.8 33.704 15.336C33.608 20.424 32.552 25.872 30.536 31.68C28.568 37.44 26 42.36 22.832 46.44C25.904 47.976 28.472 48.744 30.536 48.744C32.648 48.744 34.616 47.784 36.44 45.864C38.264 43.896 39.704 41.472 40.76 38.592C42.872 32.688 43.928 27.264 43.928 22.32C43.928 17.328 42.584 13.632 39.896 11.232C37.256 8.832 33.272 7.632 27.944 7.632C22.664 7.632 17.816 9 13.4 11.736C9.032 14.472 6.848 17.664 6.848 21.312C6.848 22.848 7.208 23.976 7.928 24.696C8.648 25.416 9.68 25.992 11.024 26.424C10.976 28.824 10.328 31.272 9.08 33.768C7.016 33.384 5.12 32.256 3.392 30.384C1.712 28.512 0.872 25.968 0.872 22.752C0.872 16.8 3.824 11.856 9.728 7.92C15.632 3.984 22.736 2.016 31.04 2.016C39.392 2.016 45.992 3.768 50.84 7.272C55.688 10.728 58.112 16.2 58.112 23.688C58.112 28.632 57.08 33.48 55.016 38.232C53 42.984 50.048 46.968 46.16 50.184C42.32 53.352 38.024 54.936 33.272 54.936C28.52 54.936 23.744 53.472 18.944 50.544C15.584 53.424 12.224 54.864 8.864 54.864C6.512 54.864 4.568 54.24 3.032 52.992C1.496 51.696 0.728 50.064 0.728 48.096ZM9.224 49.464C10.664 49.464 11.96 48.576 13.112 46.8C11.816 46.032 10.712 45.648 9.8 45.648C8.936 45.648 8.24 45.84 7.712 46.224C7.232 46.56 6.992 46.992 6.992 47.52C6.992 48.048 7.184 48.504 7.568 48.888C7.952 49.272 8.504 49.464 9.224 49.464ZM100.896 40.896C100.896 44.688 99.3838 48.072 96.3597 51.048C93.3358 53.976 89.3518 55.44 84.4078 55.44C79.4638 55.44 75.5998 53.952 72.8158 50.976C69.8398 47.808 68.3518 44.016 68.3518 39.6C68.3518 39.072 68.3758 38.4 68.4238 37.584C65.9758 39.648 63.6958 42.84 61.5838 47.16C58.8478 45.912 56.9757 44.328 55.9678 42.408C59.7118 36.696 64.4638 32.736 70.2238 30.528C72.6238 24.672 76.9198 18.696 83.1118 12.6C80.0398 11.352 76.8958 10.728 73.6798 10.728C70.5118 10.728 67.5598 11.712 64.8238 13.68C63.2398 12.912 62.3278 12.288 62.0878 11.808C62.0878 8.784 62.8318 6.072 64.3198 3.672C65.8078 1.272 68.0158 0.0719991 70.9438 0.0719991C73.9198 0.0719991 78.5998 1.728 84.9838 5.04C87.3358 6.24 88.8718 6.936 89.5918 7.128C91.6558 5.64 93.8878 4.416 96.2878 3.456C98.7358 2.496 100.896 2.016 102.768 2.016C104.64 2.016 106.296 2.544 107.736 3.6C109.224 4.608 109.968 6.192 109.968 8.352C109.968 10.512 109.176 12.408 107.592 14.04C106.056 15.624 103.896 16.416 101.112 16.416C99.6718 16.416 97.2958 15.984 93.9838 15.12C90.5278 18.864 87.6478 23.28 85.3438 28.368C89.2318 28.464 92.7838 29.616 95.9998 31.824C99.2638 34.032 100.896 37.056 100.896 40.896ZM85.3438 33.408C84.8638 33.408 84.1918 33.456 83.3278 33.552C82.6558 35.952 82.3198 38.304 82.3198 40.608C82.3198 42.912 82.8478 44.856 83.9038 46.44C85.0078 47.976 86.3758 48.744 88.0078 48.744C89.6398 48.744 90.9838 47.904 92.0398 46.224C93.0958 44.544 93.6238 42.648 93.6238 40.536C93.6238 38.424 92.7838 36.72 91.1038 35.424C89.4718 34.08 87.5518 33.408 85.3438 33.408ZM104.856 9.072C104.856 8.016 104.28 7.488 103.128 7.488C101.4 7.488 99.5758 8.592 97.6558 10.8C98.4718 11.376 99.5758 11.664 100.968 11.664C103.56 11.664 104.856 10.8 104.856 9.072Z" fill="white"/>
</svg>
